<svg width="200" height="37" viewBox="0 0 200 37" fill="none" xmlns="http://www.w3.org/2000/svg">
<g id="Vector">
<path d="M189.171 11.6546C188.59 11.2733 191.809 10.4286 195.922 9.88342C199.363 9.42717 199.745 9.40808 199.759 9.6918C199.768 9.86485 199.123 10.0871 198.326 10.1856C197.53 10.284 197.055 10.4342 197.271 10.5194C197.912 10.7717 190.606 12.0693 188 12.166C185.848 12.246 185.803 12.2364 187.565 12.0727C188.749 11.9627 189.388 11.7965 189.171 11.6546Z" fill="url(#paint0_linear_1_33)"/>
<path d="M194.624 8.72748C195.724 8.59153 196.828 8.61061 197.671 8.77994C198.399 8.92591 198.994 9.05432 198.993 9.06503C198.993 9.07571 197.102 9.18182 194.792 9.30067C188.647 9.61676 185.133 10.0344 185.085 10.4547C185.061 10.6696 184.897 10.7141 184.664 10.5691C184.454 10.4387 183.506 10.3705 182.558 10.4179C180.282 10.5316 175.595 9.98557 175.575 9.60468C175.564 9.38049 175.979 9.32553 177.213 9.38776C179.296 9.4931 190.945 8.9241 191.394 8.69499C191.577 8.60113 192.221 8.49989 192.824 8.46978C193.468 8.43762 193.709 8.52337 193.409 8.67801C193.052 8.86133 193.419 8.87642 194.624 8.72748Z" fill="url(#paint1_linear_1_33)"/>
<path d="M186.607 10.4208C186.595 10.1923 189.002 10.02 189.77 10.1945C190.588 10.3797 190.358 10.4385 188.444 10.5341C187.439 10.5843 186.612 10.5333 186.607 10.4208Z" fill="url(#paint2_linear_1_33)"/>
<path d="M174.823 12.6069C176.723 12.4602 179.991 12.0219 182.088 11.633C184.185 11.2443 185.901 10.9623 185.903 11.0067C185.906 11.0509 185.202 11.5109 184.341 12.0289C183.48 12.5466 182.873 13.0578 182.993 13.1646C183.113 13.2714 182.965 13.3026 182.662 13.2342C181.975 13.0784 180.053 13.6045 180.568 13.8074C180.775 13.8893 180.564 14.042 180.097 14.1469C179.534 14.2734 179.423 14.232 179.767 14.0239C180.052 13.8512 179.822 13.8947 179.255 14.1203C178.688 14.3458 177.83 14.5503 177.348 14.5743C176.866 14.5984 176.658 14.6914 176.885 14.781C177.351 14.9642 175.258 15.3809 173.84 15.3875C173.331 15.3898 172.734 15.5377 172.513 15.716C172.293 15.8944 171.697 16.0166 171.188 15.9875C170.68 15.9585 169.853 16.097 169.35 16.295C168.846 16.4932 168.137 16.6193 167.774 16.5749C166.713 16.4454 164.147 16.8821 164.697 17.0989C165.026 17.2288 164.632 17.2832 163.543 17.258C162.633 17.237 159.214 17.4775 155.945 17.7929C152.677 18.1081 146.223 18.611 141.603 18.9106C124.036 20.05 118.08 20.8236 116.558 22.1632C115.747 22.8782 117.539 23.6307 120.454 23.7997C123.65 23.985 129.184 23.4716 131.017 22.8194C132.468 22.3032 132.624 22.2868 132.88 22.6214C133.033 22.8223 132.728 23.0832 132.202 23.2015C131.677 23.3196 131.473 23.4676 131.749 23.5303C132.363 23.6695 129.847 25.2656 128.573 25.5458C127.978 25.6766 128.025 25.5894 128.706 25.2968C129.282 25.049 128.722 25.1655 127.462 25.556C126.201 25.9464 125.332 26.3294 125.53 26.4073C125.727 26.4852 125.507 26.6346 125.041 26.7395C124.476 26.8666 124.369 26.8252 124.72 26.6161C125.01 26.4431 124.544 26.5675 123.684 26.8924C122.825 27.2173 122.336 27.3339 122.598 27.1517C122.86 26.9694 122.371 27.0861 121.512 27.411C120.653 27.7359 120.156 27.8761 120.408 27.7224C120.924 27.4088 120.678 27.3977 119.024 27.6593C118.394 27.7588 118.01 27.8934 118.173 27.9581C118.596 28.1279 114.161 28.4698 106.199 28.8807C100.251 29.1878 98.2036 29.1951 91.9134 28.9319C79.4916 28.4121 72.9258 28.7923 67.7945 30.3285C64.7271 31.2466 64.4152 30.9433 67.3994 29.9451C69.9816 29.0814 75.1742 28.2889 79.7277 28.0638C81.5659 27.9728 87.0307 27.9919 91.8722 28.1063C102.166 28.3494 110.193 28.0511 116.007 27.2091C119.997 26.6313 126.087 25.1064 127.861 24.2408L128.99 23.6898L125.878 23.9625C117.835 24.6675 112.248 23.5295 114.963 21.7396C117.151 20.2978 122.687 19.5058 138.644 18.3521C157.404 16.9962 166.963 15.9311 174.195 14.3914C177.912 13.6002 182.305 12.3161 182.291 12.0254C182.284 11.8857 181.983 11.9018 181.377 12.0743C180.88 12.2158 177.992 12.7337 174.958 13.225C161.82 15.3529 148.462 15.6929 142.552 14.0495C139.092 13.0878 140.561 11.5368 145.816 10.6005C149.325 9.97556 151.985 9.80335 157.417 9.84992C161.214 9.88259 168.29 10.4457 168.304 10.7163C168.308 10.7912 165.955 10.7555 163.075 10.6372C153.878 10.259 146.231 10.9241 144.262 12.2733C142.99 13.1446 144.992 13.8069 150.162 14.225C154.34 14.5631 173.019 13.5236 171.75 13.0237C171.541 12.9412 172.924 12.7537 174.823 12.6069Z" fill="url(#paint3_linear_1_33)"/>
<path d="M180.65 11.2685C180.064 11.2323 180.235 11.1752 181.086 11.1228C181.856 11.0756 182.289 11.1023 182.05 11.1823C181.811 11.2624 181.18 11.3012 180.65 11.2685Z" fill="url(#paint4_linear_1_33)"/>
<path d="M173.354 11.0137C173.896 10.799 174.848 10.5978 175.469 10.5668C176.796 10.5006 176.614 10.5683 174.182 11.047C172.523 11.3737 172.452 11.3708 173.354 11.0137Z" fill="url(#paint5_linear_1_33)"/>
<path d="M171.133 8.67816C171.128 8.57077 171.781 8.66774 172.585 8.89377C174.477 9.42597 174.493 9.54656 172.623 9.17097C171.809 9.00758 171.138 8.78576 171.133 8.67816Z" fill="url(#paint6_linear_1_33)"/>
<path d="M166.697 9.47675C168.076 9.73127 169.812 10.1833 170.556 10.4814C171.939 11.0364 171.855 11.365 170.312 11.4365C169.72 11.4638 169.752 11.4054 170.411 11.2544C171.162 11.0819 170.838 10.8881 168.969 10.3936C163.092 8.83838 153.206 8.72749 123.568 9.88421C102.242 10.7164 96.9185 10.5477 90.0989 8.82449L87.2093 8.09439L100 7.46077C112.596 6.83686 117.046 6.44485 119.913 5.70658C120.954 5.43866 119.638 5.45805 112.203 5.82011C103.452 6.24603 102.982 6.24529 92.5893 5.78592L81.9416 5.31549L71.7088 5.81521C60.4643 6.36444 54.8308 6.9706 45.444 8.64105L40.7517 9.47622L40.7186 8.81285C40.6797 8.03553 43.1528 6.86537 46.5852 6.03734C47.9007 5.72003 51.9222 5.01023 55.5216 4.46033C65.6393 2.91456 72.3933 1.53492 66.9452 2.12689C65.8426 2.24655 60.5079 2.70449 55.0895 3.14426C42.7977 4.14197 38.0441 4.73167 30.6951 6.17055C22.7591 7.72426 14.3703 10.524 10.6851 12.8489C7.04329 15.1465 5.69401 16.9141 5.76397 19.298C5.79535 20.396 5.63261 21.3039 5.40092 21.3155C4.7044 21.3503 2.44996 20.0467 2.37085 19.563C2.29942 19.1304 2.27229 19.1299 1.68893 19.5527C1.27244 19.8547 1.04127 19.5242 0.954987 18.5007C0.863672 17.4204 1.06432 17.0368 1.68135 17.112C2.29395 17.1868 2.40099 17.0121 2.06278 16.4898C1.77226 16.0421 1.88439 15.7492 2.3558 15.7257C2.81552 15.7027 2.92274 15.4726 2.62519 15.1483C2.23622 14.7246 2.30729 14.6661 2.95812 14.8753C3.60747 15.0843 3.68128 15.0219 3.30261 14.5846C3.0095 14.2463 3.09994 14.0617 3.53342 14.1147C4.43722 14.225 5.31733 13.4061 4.59906 13.1229C4.29638 13.0039 4.38088 12.9501 4.79149 13.0003C5.66139 13.1064 8.10081 11.6005 7.46477 11.3501C7.22187 11.2544 7.419 11.1816 7.90293 11.1884C8.38611 11.1952 8.94159 11.0648 9.13698 10.8983C9.38081 10.6901 9.17942 10.6624 8.49142 10.8096C7.90058 10.9359 7.7364 10.9348 8.09051 10.8068C8.42087 10.6878 9.0467 10.5725 9.4823 10.5507C9.91789 10.529 10.4202 10.3757 10.598 10.2102C10.82 10.0043 10.6062 9.9766 9.92254 10.1229C9.3723 10.2406 9.08389 10.2755 9.28163 10.2007C9.47938 10.1256 9.90785 10.0492 10.233 10.0307C10.5589 10.0124 13.0246 9.29743 15.7134 8.44214C18.4015 7.58689 22.5463 6.45567 24.9247 5.928C29.5191 4.90885 41.2359 3.1206 44.3334 2.96592C45.3537 2.91497 47.0542 2.73716 48.1127 2.57089C49.1712 2.40443 55.189 1.98107 61.4852 1.62994C67.7813 1.27881 73.5631 0.882429 74.3331 0.748826C75.7147 0.509009 75.7145 0.504713 74.3163 0.413762C73.3343 0.349813 73.7958 0.290668 75.8197 0.220768C79.3555 0.0985405 79.9831 0.501742 77.5676 1.34399C76.6566 1.66182 76.2645 1.76117 76.6972 1.56484C79.624 0.236883 78.0121 0.399404 73.0083 1.9371C68.2903 3.38691 65.5417 3.94005 57.5505 5.04865C49.793 6.12487 46.3893 6.79418 44.0526 7.70325C41.2431 8.79609 41.77 8.90101 45.6245 8.01642C51.6624 6.63071 59.5667 5.64601 69.5202 5.03924C79.4365 4.43494 84.5239 4.45403 96.6845 5.14195C100.344 5.34902 105.928 5.49899 109.093 5.47527C115.41 5.42782 125.838 4.7473 125.043 4.4341C124.782 4.33106 125.29 4.32045 126.193 4.41006C127.792 4.56851 127.778 4.5807 125.049 5.39882C123.529 5.85453 121.391 6.38025 120.297 6.56712C119.203 6.75382 118.478 6.97358 118.685 7.05511C118.892 7.13664 118.68 7.28915 118.213 7.39407C117.649 7.52086 117.558 7.48586 117.939 7.28963C118.384 7.06049 118.04 7.05204 116.401 7.25199C109.545 8.08902 101.524 8.48609 93.1779 8.40189C90.3482 8.37341 91.1996 8.68094 95.1754 9.12364C99.3693 9.59092 105.589 9.75422 111.596 9.55476C114.338 9.46374 122.507 9.19195 129.749 8.95068C151.953 8.21096 160.497 8.33245 166.697 9.47675Z" fill="url(#paint7_linear_1_33)"/>
<path d="M155.511 6.35439C159.325 6.35485 165.092 6.86518 168.278 7.48431C169.778 7.77546 170.919 8.0425 170.814 8.07765C170.71 8.11261 168.331 7.92891 165.529 7.66914C159.55 7.11508 151.583 7.06077 142.359 7.51092C138.866 7.6815 135.795 7.73783 135.538 7.63607C135.279 7.53435 134.683 7.53563 134.212 7.6391C133.724 7.7461 133.781 7.65654 134.342 7.43084C135.444 6.98779 136.234 6.8651 135.477 7.25416C135.145 7.42516 135.507 7.43335 136.608 7.27994C138.6 7.00225 151.844 6.35382 155.511 6.35439Z" fill="url(#paint8_linear_1_33)"/>
<path d="M166.998 6.58092L168.662 6.88848C169.577 7.05771 170.328 7.22775 170.33 7.26661C170.338 7.43026 169.744 7.33874 168.414 6.97164L166.998 6.58092Z" fill="url(#paint9_linear_1_33)"/>
<path d="M160.943 13.6981C159.232 13.7405 160.628 13.6353 164.045 13.4646C167.462 13.294 168.862 13.2596 167.155 13.3879C165.449 13.5163 162.654 13.6559 160.943 13.6981Z" fill="url(#paint10_linear_1_33)"/>
<path d="M162.949 15.1449C163.138 15.0818 163.647 15.0732 164.079 15.126C165.255 15.2695 165.035 15.3986 163.74 15.3247C163.116 15.289 162.76 15.2081 162.949 15.1449Z" fill="url(#paint11_linear_1_33)"/>
<path d="M159.24 8.03123C158.654 7.99507 158.825 7.93794 159.676 7.8856C160.446 7.83833 160.879 7.86508 160.64 7.94511C160.401 8.02514 159.77 8.064 159.24 8.03123Z" fill="url(#paint12_linear_1_33)"/>
<path d="M155.018 16.0996C155.261 15.9747 156.345 15.8348 157.427 15.7886C159.184 15.7138 159.239 15.7315 157.941 15.9536C155.923 16.2993 154.491 16.3708 155.018 16.0996Z" fill="url(#paint13_linear_1_33)"/>
<path d="M155.728 11.0775C155.143 11.0414 155.313 10.9842 156.164 10.9319C156.934 10.8846 157.368 10.9114 157.129 10.9914C156.889 11.0714 156.259 11.1103 155.728 11.0775Z" fill="url(#paint14_linear_1_33)"/>
<path d="M154.769 13.6763C153.275 13.5091 153.746 13.4273 155.594 13.533C156.251 13.5703 156.636 13.6519 156.451 13.7139C156.265 13.776 155.508 13.7591 154.769 13.6763Z" fill="url(#paint15_linear_1_33)"/>
<path d="M153.117 18.381C152.611 18.3494 153.02 18.2824 154.025 18.2323C155.03 18.1821 155.443 18.208 154.944 18.2897C154.444 18.3717 153.622 18.4128 153.117 18.381Z" fill="url(#paint16_linear_1_33)"/>
<path d="M147.328 16.1775C147.312 15.8581 148.247 15.8308 151.607 16.0518L154.069 16.2134L152.365 16.5657C151.429 16.7593 149.723 16.968 148.575 17.0294C146.966 17.1153 146.585 17.0615 146.914 16.7951C147.15 16.6049 147.336 16.327 147.328 16.1775Z" fill="url(#paint17_linear_1_33)"/>
<path d="M147.872 13.1081C148.501 13.209 149.923 13.3094 151.033 13.3313C153.386 13.378 153.661 13.5015 151.637 13.6026C150.855 13.6416 149.431 13.505 148.472 13.2992C147.513 13.0935 147.243 13.0073 147.872 13.1081Z" fill="url(#paint18_linear_1_33)"/>
<path d="M150.347 6.01454C149.761 5.97837 149.932 5.92124 150.783 5.8689C151.552 5.82164 151.986 5.84838 151.747 5.92841C151.508 6.00844 150.877 6.0473 150.347 6.01454Z" fill="url(#paint19_linear_1_33)"/>
<path d="M146.033 19.3559C146.033 19.2091 146.321 19.2201 146.756 19.3831C147.683 19.7308 147.687 19.8015 146.771 19.69C146.366 19.6405 146.033 19.4902 146.033 19.3559Z" fill="url(#paint20_linear_1_33)"/>
<path d="M129.754 20.9434C132.35 20.332 140.807 19.7423 144.65 19.9046C146.251 19.9721 147.47 20.1116 147.358 20.2145C147.248 20.3175 143.709 20.6074 139.494 20.8589C135.28 21.1103 130.931 21.4276 129.829 21.564C127.241 21.8842 127.2 21.5446 129.754 20.9434Z" fill="url(#paint21_linear_1_33)"/>
<path d="M145.974 12.5994C145.728 12.5436 145.693 12.3684 145.897 12.2103C146.122 12.0355 146.298 12.0753 146.345 12.3118C146.387 12.5259 146.22 12.6552 145.974 12.5994Z" fill="url(#paint22_linear_1_33)"/>
<path d="M139.338 6.55999C138.832 6.52844 139.241 6.46146 140.246 6.41128C141.251 6.36109 141.664 6.38701 141.165 6.46874C140.665 6.55072 139.843 6.59178 139.338 6.55999Z" fill="url(#paint23_linear_1_33)"/>
<path d="M137.87 21.193C137.365 21.1615 137.774 21.0945 138.779 21.0443C139.784 20.9941 140.197 21.02 139.698 21.1018C139.198 21.1837 138.375 21.2248 137.87 21.193Z" fill="url(#paint24_linear_1_33)"/>
<path d="M121.469 16.8846C124.218 16.7379 128.034 16.6111 129.948 16.6029C131.861 16.5945 133.429 16.614 133.43 16.6459C133.432 16.678 129.897 16.872 125.575 17.0769C117.073 17.4802 117.333 17.4445 106.473 19.704C99.8153 21.0891 93.8353 21.8448 85.3579 22.3721C79.884 22.7126 76.5335 22.8184 73.6531 22.7415L69.6178 22.634L75.5843 22.4441C82.0752 22.2373 91.6766 21.4611 96.945 20.7171C98.7748 20.4586 103.916 19.5506 108.371 18.6991C115.738 17.2912 116.922 17.1271 121.469 16.8846Z" fill="url(#paint25_linear_1_33)"/>
<path d="M128.481 8.33685C127.896 8.30068 128.066 8.24355 128.917 8.19121C129.687 8.14394 130.121 8.17069 129.882 8.25072C129.642 8.33075 129.012 8.36961 128.481 8.33685Z" fill="url(#paint26_linear_1_33)"/>
<path d="M124.112 6.12028C124.109 6.06402 124.757 5.81844 125.55 5.57475C126.344 5.33107 126.996 5.17753 126.999 5.23379C127.002 5.29004 126.354 5.53563 125.561 5.77931C124.767 6.02299 124.115 6.17653 124.112 6.12028Z" fill="url(#paint27_linear_1_33)"/>
<path d="M122.599 8.83136C122.093 8.79981 122.503 8.73283 123.508 8.68265C124.512 8.63246 124.926 8.65838 124.426 8.74011C123.926 8.82209 123.104 8.86315 122.599 8.83136Z" fill="url(#paint28_linear_1_33)"/>
<path d="M115.816 4.67317C114.095 4.71586 115.318 4.61869 118.534 4.45748C121.75 4.29607 123.158 4.26123 121.663 4.37996C120.168 4.49869 117.537 4.63069 115.816 4.67317Z" fill="url(#paint29_linear_1_33)"/>
<path d="M112.412 9.34438C111.826 9.30821 111.997 9.25108 112.848 9.19874C113.618 9.15148 114.052 9.17822 113.813 9.25825C113.573 9.33828 112.943 9.37714 112.412 9.34438Z" fill="url(#paint30_linear_1_33)"/>
<path d="M66.3043 14.7652C78.0067 16.2682 90.2068 16.6627 103.934 15.9821C111.365 15.6137 111.439 15.6147 110.142 16.0759C106.644 17.3202 91.5596 19.3523 78.7191 20.3089C70.0301 20.9563 58.369 21.3213 52.7246 21.1224C50.7245 21.0521 48.9436 21.043 48.7656 21.1026C48.5883 21.1619 49.6763 21.6596 51.1845 22.2085C55.7367 23.8649 62.6015 24.7027 72.6582 24.8286L74.8577 24.8561L72.0083 25.4137C63.1282 27.1509 49.8309 28.277 40.0393 28.1208C27.1159 27.9145 15.4163 25.8955 10.1808 22.9677C7.39639 21.4102 8.10833 21.1266 11.1937 22.5642C15.1733 24.4188 22.9287 26.1291 30.088 26.7311C39.3192 27.5077 48.7035 27.4154 58.1338 26.4554C64.7465 25.7823 64.9584 25.6669 60.4777 25.1785C58.3088 24.9423 55.1385 24.4173 53.4324 24.0122C50.3982 23.292 46.4882 21.6424 46.4596 21.0707C46.4517 20.9126 46.0451 20.6925 45.556 20.5816C44.2865 20.2937 45.9329 20.2359 48.5058 20.4782C52.127 20.8191 62.2008 20.5973 72.0027 19.9614C80.7338 19.3948 95.818 17.9129 101.727 17.041C104.384 16.6489 104.213 16.6449 96.4349 16.9144C86.6673 17.2529 81.656 17.1441 72.8749 16.4026C66.3387 15.8507 57.5153 14.3789 58.0069 13.9225C58.1315 13.8067 60.0629 13.4107 62.2983 13.0425C64.5337 12.6741 67.6244 12.0596 69.1652 11.6767L71.9667 10.9807L69.4151 11.2373C68.0117 11.3785 60.4539 11.894 52.6201 12.3828C41.644 13.0679 37.1247 13.4359 32.9172 13.9868C21.5497 15.4757 11.6021 17.8299 10.6932 19.2464C10.112 20.1525 9.05004 20.2351 9.00721 19.3774C8.9136 17.5028 17.1318 15.2179 31.0486 13.2492C35.649 12.5985 37.6967 12.4474 52.2191 11.6892C61.0618 11.2275 70.0631 10.6562 72.2215 10.4198C77.7183 9.81804 77.733 9.81976 75.5013 10.8196C72.9105 11.9802 69.8537 12.7144 64.6294 13.4308L60.4152 14.0087L66.3043 14.7652Z" fill="url(#paint31_linear_1_33)"/>
<path d="M79.2546 13.7174C86.5318 14.466 93.0436 14.5452 101.711 13.9906C106.978 13.6535 108.251 13.6207 107.199 13.8494C106.386 14.0262 102.116 14.3325 96.6932 14.6033C88.3136 15.0218 87.2092 15.0314 83.3543 14.7203C79.083 14.3756 73.93 13.6143 73.9156 13.3259C73.9112 13.2386 76.3138 13.4147 79.2546 13.7174Z" fill="url(#paint32_linear_1_33)"/>
<path d="M104.222 29.447C103.109 29.4554 103.842 29.379 105.852 29.277C107.862 29.1752 108.773 29.1682 107.876 29.2616C106.98 29.355 105.335 29.4383 104.222 29.447Z" fill="url(#paint33_linear_1_33)"/>
<path d="M101.133 3.25221C101.001 3.30328 102.142 3.58653 103.668 3.88169C105.194 4.17688 106.445 4.46895 106.448 4.53113C106.451 4.59311 105.771 4.50689 104.938 4.33955C104.104 4.172 103.026 4.03639 102.542 4.03822C102.057 4.03984 99.1826 3.93137 96.1535 3.79698C93.1244 3.6626 87.2236 3.5818 83.0416 3.61736C78.8589 3.65295 75.2808 3.64686 75.0911 3.60364C74.9006 3.56044 74.9829 3.40275 75.2743 3.25285C76.0851 2.83545 86.8568 2.56063 92.0751 2.82399C99.2664 3.18711 99.3543 3.18825 98.6702 2.89944C98.308 2.7465 98.3341 2.69721 98.7331 2.77838C99.1032 2.85403 99.4117 3.01539 99.4177 3.1373C99.4238 3.25922 99.8877 3.37878 100.449 3.40286C101.146 3.43303 101.28 3.36688 100.871 3.19394C100.541 3.05475 100.52 2.98999 100.822 3.05014C101.125 3.11008 101.265 3.20111 101.133 3.25221Z" fill="url(#paint34_linear_1_33)"/>
<path d="M84.7265 25.9558C88.4739 26.3013 95.8064 26.4246 100.571 26.2222L104.226 26.0669L100.66 26.4535C95.6248 26.999 88.1783 26.9698 83.5969 26.3861C79.4903 25.863 80.3143 25.5491 84.7265 25.9558Z" fill="url(#paint35_linear_1_33)"/>
<path d="M98.4815 29.8733C98.2738 30.0414 98.4579 30.2223 98.8914 30.2751C99.3241 30.3279 99.6876 30.5497 99.6985 30.7681C99.7234 31.2664 97.9269 31.3717 94.1258 31.0948C90.7166 30.8463 90.3925 30.8426 84.3223 30.9799C80.8759 31.0578 79.9656 31.0219 81.0187 30.8498C81.9526 30.6969 80.8495 30.7046 77.9365 30.8708C75.4422 31.0132 73.1592 31.0747 72.8635 31.0076C71.6577 30.7342 74.3472 30.2874 79.0686 29.9768C84.7971 29.5996 90.8979 29.709 95.3499 30.2682C98.4017 30.6516 99.8072 30.7 98.3599 30.3717C97.2919 30.1296 97.1626 29.6523 98.1522 29.6029C98.541 29.5834 98.69 29.705 98.4815 29.8733Z" fill="url(#paint36_linear_1_33)"/>
<path d="M84.2098 2.13995C83.624 2.10379 83.7948 2.04666 84.6458 1.99432C85.4157 1.94705 85.8493 1.9738 85.6101 2.05383C85.3708 2.13386 84.7404 2.17272 84.2098 2.13995Z" fill="url(#paint37_linear_1_33)"/>
<path d="M79.0936 2.39545C78.5078 2.35928 78.6786 2.30215 79.5296 2.24981C80.2995 2.20254 80.7332 2.22929 80.4939 2.30932C80.2546 2.38935 79.6243 2.42821 79.0936 2.39545Z" fill="url(#paint38_linear_1_33)"/>
<path d="M74.5673 2.59318C74.8779 2.34205 75.1748 2.31656 75.9761 2.47156C77.3204 2.73172 77.2967 2.75526 75.6127 2.83935C74.6538 2.88724 74.3053 2.80518 74.5673 2.59318Z" fill="url(#paint39_linear_1_33)"/>
<path d="M67.7788 31.6284C70.8206 31.9726 73.6576 32.9116 74.9637 34.0062C76.0091 34.8824 75.9176 36.25 74.8104 36.3053C73.4195 36.3748 71.1303 35.739 71.7053 35.4428C71.9696 35.307 71.916 35.2299 71.5854 35.2714C70.4859 35.4102 67.6538 35.2004 68.0281 35.0078C68.231 34.9035 67.6896 34.9055 66.8253 35.0125C65.7876 35.1406 65.4195 35.1214 65.741 34.9561C66.5782 34.5255 61.1728 34.5063 51.214 34.9041C45.3363 35.1388 41.5449 35.2047 41.2227 35.0776C40.9014 34.9514 39.7688 34.9702 38.26 35.127C36.4078 35.3197 36.0793 35.3144 36.9027 35.1056C37.7448 34.8917 37.5391 34.88 35.9842 35.053C34.7258 35.1931 33.9761 35.1904 33.9689 35.0458C33.9625 34.9191 33.4499 34.8957 32.8291 34.994C32.0978 35.1097 31.8787 35.0808 32.2066 34.9121C32.5524 34.7345 32.2055 34.7144 31.1147 34.8493C30.1039 34.9742 29.0492 34.9377 28.2471 34.7501C26.6279 34.3712 24.1361 34.2256 24.8109 34.5493C25.0744 34.676 24.6379 34.5912 23.8409 34.3609C23.0143 34.1223 22.0297 34.0238 21.5493 34.1319C21.0515 34.2437 20.7844 34.2061 20.8948 34.0401C20.9978 33.8856 20.5093 33.7868 19.8097 33.8205C19.1095 33.8544 18.5618 33.8039 18.593 33.7084C18.6692 33.4737 14.6989 32.54 13.8124 32.5842C13.4235 32.6037 13.7097 32.7739 14.4482 32.9626C15.1867 33.1513 15.6337 33.3136 15.44 33.3232C15.247 33.3329 14.2795 33.1355 13.2896 32.8849C12.3004 32.6341 11.9048 32.4749 12.4117 32.5307C12.9179 32.5867 13.3285 32.5491 13.3234 32.4475C13.3104 32.1861 10.6882 31.6899 10.1938 31.8553C9.96821 31.9307 9.53035 31.8925 9.22017 31.7702C8.85919 31.6283 8.9633 31.5855 9.5066 31.6519C10.8358 31.8138 10.4868 31.3983 9.08826 31.1534C8.02312 30.9671 7.93181 30.9724 8.471 31.191C8.89129 31.3613 8.82869 31.4139 8.28463 31.3473C7.83421 31.2925 7.66422 31.0871 7.9072 30.8908C8.22551 30.6331 8.08143 30.594 7.38802 30.7498C6.77865 30.8869 6.60014 30.8775 6.89874 30.724C7.51593 30.4063 6.63025 29.8372 5.80716 30.0224C5.45501 30.1015 5.37507 29.9977 5.63 29.7914C5.92652 29.5518 5.81227 29.4796 5.31377 29.5916C4.80875 29.7052 4.6718 29.604 4.92432 29.3051C5.17404 29.009 5.03772 28.9055 4.54356 29.0165C4.0494 29.1275 3.91235 29.024 4.1628 28.7279C4.41252 28.4319 4.27619 28.3283 3.78203 28.4393C3.29657 28.5485 3.14458 28.4542 3.37289 28.1842C3.57214 27.9486 3.37584 27.7737 2.93731 27.7956C2.43154 27.8208 2.2962 27.5903 2.56815 27.167C2.87066 26.6959 2.75437 26.553 2.17544 26.6832C1.59361 26.814 1.38548 26.5344 1.46378 25.7256C1.524 25.0974 1.82009 24.5707 2.12194 24.5554C2.42379 24.5404 2.65869 24.2996 2.64475 24.0206C2.61501 23.4249 4.63929 21.7637 5.44399 21.7235C5.7495 21.7082 6.0114 22.595 6.02671 23.6938C6.07762 27.3543 9.55665 29.5731 18.3377 31.545C27.3699 33.5732 32.8099 33.9343 51.763 33.7634C57.696 33.7099 63.7828 33.7886 66.3913 33.9522C68.8484 34.1066 70.9466 34.2034 71.0533 34.1675C71.3286 34.0754 66.1683 32.2162 64.35 31.7523C62.3343 31.238 63.8454 31.1834 67.7788 31.6284Z" fill="url(#paint40_linear_1_33)"/>
<path d="M69.8374 31.5349C69.6091 31.4833 69.8253 31.307 70.3183 31.1431C71.0304 30.9066 71.1149 30.926 70.7333 31.2373C70.4685 31.4527 70.0656 31.5866 69.8374 31.5349Z" fill="url(#paint41_linear_1_33)"/>
<path d="M62.8772 1.36438C61.9699 1.36068 62.7083 1.28381 64.5173 1.19348C66.3262 1.10314 67.0686 1.10606 66.1662 1.20013C65.2638 1.294 63.7845 1.36788 62.8772 1.36438Z" fill="url(#paint42_linear_1_33)"/>
<path d="M60.2021 34.9192C59.6163 34.883 59.7871 34.8259 60.6381 34.7735C61.408 34.7263 61.8417 34.753 61.6024 34.833C61.3631 34.9131 60.7328 34.9519 60.2021 34.9192Z" fill="url(#paint43_linear_1_33)"/>
<path d="M18.0086 29.0489C25.442 31.2956 36.9921 32.6128 48.0675 32.4766L51.7895 32.4308L48.2734 32.6693C39.8948 33.2381 29.1551 32.5385 22.1276 30.9663C18.2093 30.0895 14.9542 28.8766 15.7793 28.6004C15.9746 28.5353 16.9775 28.737 18.0086 29.0489Z" fill="url(#paint44_linear_1_33)"/>
<path d="M27.0179 16.2107C31.0331 15.6813 40.4689 15.2136 42.3945 15.4484C43.916 15.6341 43.3423 15.6928 38.9559 15.8003C31.4965 15.9834 23.4462 17.1536 17.0874 18.9794C13.597 19.9815 12.4046 20.0196 14.5884 19.0591C16.7099 18.1257 22.424 16.8162 27.0179 16.2107Z" fill="url(#paint45_linear_1_33)"/>
<path d="M38.8339 3.17554C38.2481 3.13938 38.4189 3.08225 39.2699 3.02991C40.0398 2.98264 40.4735 3.00939 40.2342 3.08942C39.9949 3.16945 39.3645 3.20831 38.8339 3.17554Z" fill="url(#paint46_linear_1_33)"/>
<path d="M17.0358 10.3021C20.1765 9.14966 26.4462 7.75544 29.0796 7.62394C31.099 7.52309 30.7268 7.65652 26.5357 8.53475C19.5339 10.0018 15.9482 11.441 11.8405 14.4318L11.0848 14.9822L11.0081 14.4299C10.8734 13.4652 13.7109 11.5222 17.0358 10.3021Z" fill="url(#paint47_linear_1_33)"/>
<path d="M11.4353 9.31138C11.4325 9.25513 13.2142 8.61863 15.3946 7.89721C17.575 7.17579 19.3612 6.63134 19.364 6.68759C19.3669 6.74384 17.5852 7.38035 15.4048 8.10177C13.2244 8.82319 11.4381 9.36764 11.4353 9.31138Z" fill="url(#paint48_linear_1_33)"/>
<path d="M2.10327 22.0398C1.85723 21.984 1.8221 21.8088 2.02595 21.6507C2.25096 21.4759 2.42659 21.5157 2.47358 21.7523C2.51578 21.9663 2.34933 22.0956 2.10327 22.0398Z" fill="url(#paint49_linear_1_33)"/>
</g>
<defs>
<linearGradient id="paint0_linear_1_33" x1="199.876" y1="12.0373" x2="1.12384" y2="21.9627" gradientUnits="userSpaceOnUse">
<stop stop-color="#90020B"/>
<stop offset="1" stop-color="#EA5757"/>
</linearGradient>
<linearGradient id="paint1_linear_1_33" x1="199.876" y1="12.0373" x2="1.12384" y2="21.9627" gradientUnits="userSpaceOnUse">
<stop stop-color="#90020B"/>
<stop offset="1" stop-color="#EA5757"/>
</linearGradient>
<linearGradient id="paint2_linear_1_33" x1="199.876" y1="12.0373" x2="1.12384" y2="21.9627" gradientUnits="userSpaceOnUse">
<stop stop-color="#90020B"/>
<stop offset="1" stop-color="#EA5757"/>
</linearGradient>
<linearGradient id="paint3_linear_1_33" x1="199.876" y1="12.0373" x2="1.12384" y2="21.9627" gradientUnits="userSpaceOnUse">
<stop stop-color="#90020B"/>
<stop offset="1" stop-color="#EA5757"/>
</linearGradient>
<linearGradient id="paint4_linear_1_33" x1="199.876" y1="12.0373" x2="1.12384" y2="21.9627" gradientUnits="userSpaceOnUse">
<stop stop-color="#90020B"/>
<stop offset="1" stop-color="#EA5757"/>
</linearGradient>
<linearGradient id="paint5_linear_1_33" x1="199.876" y1="12.0373" x2="1.12384" y2="21.9627" gradientUnits="userSpaceOnUse">
<stop stop-color="#90020B"/>
<stop offset="1" stop-color="#EA5757"/>
</linearGradient>
<linearGradient id="paint6_linear_1_33" x1="199.876" y1="12.0373" x2="1.12384" y2="21.9627" gradientUnits="userSpaceOnUse">
<stop stop-color="#90020B"/>
<stop offset="1" stop-color="#EA5757"/>
</linearGradient>
<linearGradient id="paint7_linear_1_33" x1="199.876" y1="12.0373" x2="1.12384" y2="21.9627" gradientUnits="userSpaceOnUse">
<stop stop-color="#90020B"/>
<stop offset="1" stop-color="#EA5757"/>
</linearGradient>
<linearGradient id="paint8_linear_1_33" x1="199.876" y1="12.0373" x2="1.12384" y2="21.9627" gradientUnits="userSpaceOnUse">
<stop stop-color="#90020B"/>
<stop offset="1" stop-color="#EA5757"/>
</linearGradient>
<linearGradient id="paint9_linear_1_33" x1="199.876" y1="12.0373" x2="1.12384" y2="21.9627" gradientUnits="userSpaceOnUse">
<stop stop-color="#90020B"/>
<stop offset="1" stop-color="#EA5757"/>
</linearGradient>
<linearGradient id="paint10_linear_1_33" x1="199.876" y1="12.0373" x2="1.12384" y2="21.9627" gradientUnits="userSpaceOnUse">
<stop stop-color="#90020B"/>
<stop offset="1" stop-color="#EA5757"/>
</linearGradient>
<linearGradient id="paint11_linear_1_33" x1="199.876" y1="12.0373" x2="1.12384" y2="21.9627" gradientUnits="userSpaceOnUse">
<stop stop-color="#90020B"/>
<stop offset="1" stop-color="#EA5757"/>
</linearGradient>
<linearGradient id="paint12_linear_1_33" x1="199.876" y1="12.0373" x2="1.12384" y2="21.9627" gradientUnits="userSpaceOnUse">
<stop stop-color="#90020B"/>
<stop offset="1" stop-color="#EA5757"/>
</linearGradient>
<linearGradient id="paint13_linear_1_33" x1="199.876" y1="12.0373" x2="1.12384" y2="21.9627" gradientUnits="userSpaceOnUse">
<stop stop-color="#90020B"/>
<stop offset="1" stop-color="#EA5757"/>
</linearGradient>
<linearGradient id="paint14_linear_1_33" x1="199.876" y1="12.0373" x2="1.12384" y2="21.9627" gradientUnits="userSpaceOnUse">
<stop stop-color="#90020B"/>
<stop offset="1" stop-color="#EA5757"/>
</linearGradient>
<linearGradient id="paint15_linear_1_33" x1="199.876" y1="12.0373" x2="1.12384" y2="21.9627" gradientUnits="userSpaceOnUse">
<stop stop-color="#90020B"/>
<stop offset="1" stop-color="#EA5757"/>
</linearGradient>
<linearGradient id="paint16_linear_1_33" x1="199.876" y1="12.0373" x2="1.12384" y2="21.9627" gradientUnits="userSpaceOnUse">
<stop stop-color="#90020B"/>
<stop offset="1" stop-color="#EA5757"/>
</linearGradient>
<linearGradient id="paint17_linear_1_33" x1="199.876" y1="12.0373" x2="1.12384" y2="21.9627" gradientUnits="userSpaceOnUse">
<stop stop-color="#90020B"/>
<stop offset="1" stop-color="#EA5757"/>
</linearGradient>
<linearGradient id="paint18_linear_1_33" x1="199.876" y1="12.0373" x2="1.12384" y2="21.9627" gradientUnits="userSpaceOnUse">
<stop stop-color="#90020B"/>
<stop offset="1" stop-color="#EA5757"/>
</linearGradient>
<linearGradient id="paint19_linear_1_33" x1="199.876" y1="12.0373" x2="1.12384" y2="21.9627" gradientUnits="userSpaceOnUse">
<stop stop-color="#90020B"/>
<stop offset="1" stop-color="#EA5757"/>
</linearGradient>
<linearGradient id="paint20_linear_1_33" x1="199.876" y1="12.0373" x2="1.12384" y2="21.9627" gradientUnits="userSpaceOnUse">
<stop stop-color="#90020B"/>
<stop offset="1" stop-color="#EA5757"/>
</linearGradient>
<linearGradient id="paint21_linear_1_33" x1="199.876" y1="12.0373" x2="1.12384" y2="21.9627" gradientUnits="userSpaceOnUse">
<stop stop-color="#90020B"/>
<stop offset="1" stop-color="#EA5757"/>
</linearGradient>
<linearGradient id="paint22_linear_1_33" x1="199.876" y1="12.0373" x2="1.12384" y2="21.9627" gradientUnits="userSpaceOnUse">
<stop stop-color="#90020B"/>
<stop offset="1" stop-color="#EA5757"/>
</linearGradient>
<linearGradient id="paint23_linear_1_33" x1="199.876" y1="12.0373" x2="1.12384" y2="21.9627" gradientUnits="userSpaceOnUse">
<stop stop-color="#90020B"/>
<stop offset="1" stop-color="#EA5757"/>
</linearGradient>
<linearGradient id="paint24_linear_1_33" x1="199.876" y1="12.0373" x2="1.12384" y2="21.9627" gradientUnits="userSpaceOnUse">
<stop stop-color="#90020B"/>
<stop offset="1" stop-color="#EA5757"/>
</linearGradient>
<linearGradient id="paint25_linear_1_33" x1="199.876" y1="12.0373" x2="1.12384" y2="21.9627" gradientUnits="userSpaceOnUse">
<stop stop-color="#90020B"/>
<stop offset="1" stop-color="#EA5757"/>
</linearGradient>
<linearGradient id="paint26_linear_1_33" x1="199.876" y1="12.0373" x2="1.12384" y2="21.9627" gradientUnits="userSpaceOnUse">
<stop stop-color="#90020B"/>
<stop offset="1" stop-color="#EA5757"/>
</linearGradient>
<linearGradient id="paint27_linear_1_33" x1="199.876" y1="12.0373" x2="1.12384" y2="21.9627" gradientUnits="userSpaceOnUse">
<stop stop-color="#90020B"/>
<stop offset="1" stop-color="#EA5757"/>
</linearGradient>
<linearGradient id="paint28_linear_1_33" x1="199.876" y1="12.0373" x2="1.12384" y2="21.9627" gradientUnits="userSpaceOnUse">
<stop stop-color="#90020B"/>
<stop offset="1" stop-color="#EA5757"/>
</linearGradient>
<linearGradient id="paint29_linear_1_33" x1="199.876" y1="12.0373" x2="1.12384" y2="21.9627" gradientUnits="userSpaceOnUse">
<stop stop-color="#90020B"/>
<stop offset="1" stop-color="#EA5757"/>
</linearGradient>
<linearGradient id="paint30_linear_1_33" x1="199.876" y1="12.0373" x2="1.12384" y2="21.9627" gradientUnits="userSpaceOnUse">
<stop stop-color="#90020B"/>
<stop offset="1" stop-color="#EA5757"/>
</linearGradient>
<linearGradient id="paint31_linear_1_33" x1="199.876" y1="12.0373" x2="1.12384" y2="21.9627" gradientUnits="userSpaceOnUse">
<stop stop-color="#90020B"/>
<stop offset="1" stop-color="#EA5757"/>
</linearGradient>
<linearGradient id="paint32_linear_1_33" x1="199.876" y1="12.0373" x2="1.12384" y2="21.9627" gradientUnits="userSpaceOnUse">
<stop stop-color="#90020B"/>
<stop offset="1" stop-color="#EA5757"/>
</linearGradient>
<linearGradient id="paint33_linear_1_33" x1="199.876" y1="12.0373" x2="1.12384" y2="21.9627" gradientUnits="userSpaceOnUse">
<stop stop-color="#90020B"/>
<stop offset="1" stop-color="#EA5757"/>
</linearGradient>
<linearGradient id="paint34_linear_1_33" x1="199.876" y1="12.0373" x2="1.12384" y2="21.9627" gradientUnits="userSpaceOnUse">
<stop stop-color="#90020B"/>
<stop offset="1" stop-color="#EA5757"/>
</linearGradient>
<linearGradient id="paint35_linear_1_33" x1="199.876" y1="12.0373" x2="1.12384" y2="21.9627" gradientUnits="userSpaceOnUse">
<stop stop-color="#90020B"/>
<stop offset="1" stop-color="#EA5757"/>
</linearGradient>
<linearGradient id="paint36_linear_1_33" x1="199.876" y1="12.0373" x2="1.12384" y2="21.9627" gradientUnits="userSpaceOnUse">
<stop stop-color="#90020B"/>
<stop offset="1" stop-color="#EA5757"/>
</linearGradient>
<linearGradient id="paint37_linear_1_33" x1="199.876" y1="12.0373" x2="1.12384" y2="21.9627" gradientUnits="userSpaceOnUse">
<stop stop-color="#90020B"/>
<stop offset="1" stop-color="#EA5757"/>
</linearGradient>
<linearGradient id="paint38_linear_1_33" x1="199.876" y1="12.0373" x2="1.12384" y2="21.9627" gradientUnits="userSpaceOnUse">
<stop stop-color="#90020B"/>
<stop offset="1" stop-color="#EA5757"/>
</linearGradient>
<linearGradient id="paint39_linear_1_33" x1="199.876" y1="12.0373" x2="1.12384" y2="21.9627" gradientUnits="userSpaceOnUse">
<stop stop-color="#90020B"/>
<stop offset="1" stop-color="#EA5757"/>
</linearGradient>
<linearGradient id="paint40_linear_1_33" x1="199.876" y1="12.0373" x2="1.12384" y2="21.9627" gradientUnits="userSpaceOnUse">
<stop stop-color="#90020B"/>
<stop offset="1" stop-color="#EA5757"/>
</linearGradient>
<linearGradient id="paint41_linear_1_33" x1="199.876" y1="12.0373" x2="1.12384" y2="21.9627" gradientUnits="userSpaceOnUse">
<stop stop-color="#90020B"/>
<stop offset="1" stop-color="#EA5757"/>
</linearGradient>
<linearGradient id="paint42_linear_1_33" x1="199.876" y1="12.0373" x2="1.12384" y2="21.9627" gradientUnits="userSpaceOnUse">
<stop stop-color="#90020B"/>
<stop offset="1" stop-color="#EA5757"/>
</linearGradient>
<linearGradient id="paint43_linear_1_33" x1="199.876" y1="12.0373" x2="1.12384" y2="21.9627" gradientUnits="userSpaceOnUse">
<stop stop-color="#90020B"/>
<stop offset="1" stop-color="#EA5757"/>
</linearGradient>
<linearGradient id="paint44_linear_1_33" x1="199.876" y1="12.0373" x2="1.12384" y2="21.9627" gradientUnits="userSpaceOnUse">
<stop stop-color="#90020B"/>
<stop offset="1" stop-color="#EA5757"/>
</linearGradient>
<linearGradient id="paint45_linear_1_33" x1="199.876" y1="12.0373" x2="1.12384" y2="21.9627" gradientUnits="userSpaceOnUse">
<stop stop-color="#90020B"/>
<stop offset="1" stop-color="#EA5757"/>
</linearGradient>
<linearGradient id="paint46_linear_1_33" x1="199.876" y1="12.0373" x2="1.12384" y2="21.9627" gradientUnits="userSpaceOnUse">
<stop stop-color="#90020B"/>
<stop offset="1" stop-color="#EA5757"/>
</linearGradient>
<linearGradient id="paint47_linear_1_33" x1="199.876" y1="12.0373" x2="1.12384" y2="21.9627" gradientUnits="userSpaceOnUse">
<stop stop-color="#90020B"/>
<stop offset="1" stop-color="#EA5757"/>
</linearGradient>
<linearGradient id="paint48_linear_1_33" x1="199.876" y1="12.0373" x2="1.12384" y2="21.9627" gradientUnits="userSpaceOnUse">
<stop stop-color="#90020B"/>
<stop offset="1" stop-color="#EA5757"/>
</linearGradient>
<linearGradient id="paint49_linear_1_33" x1="199.876" y1="12.0373" x2="1.12384" y2="21.9627" gradientUnits="userSpaceOnUse">
<stop stop-color="#90020B"/>
<stop offset="1" stop-color="#EA5757"/>
</linearGradient>
</defs>
</svg>
